<?xml version="1.0" encoding="UTF-8" standalone="no"?>
<svg
   width="16"
   height="16"
   viewBox="0 0 16 16"
   fill="none"
   version="1.1"
   id="svg3"
   sodipodi:docname="knlogo.svg"
   inkscape:version="1.3.2 (091e20e, 2023-11-25, custom)"
   xmlns:inkscape="http://www.inkscape.org/namespaces/inkscape"
   xmlns:sodipodi="http://sodipodi.sourceforge.net/DTD/sodipodi-0.dtd"
   xmlns="http://www.w3.org/2000/svg"
   xmlns:svg="http://www.w3.org/2000/svg">
  <sodipodi:namedview
     id="namedview3"
     pagecolor="#ffffff"
     bordercolor="#000000"
     borderopacity="0.25"
     inkscape:showpageshadow="2"
     inkscape:pageopacity="0.0"
     inkscape:pagecheckerboard="0"
     inkscape:deskcolor="#d1d1d1"
     inkscape:zoom="30.75"
     inkscape:cx="8.1788618"
     inkscape:cy="8.097561"
     inkscape:window-width="1280"
     inkscape:window-height="730"
     inkscape:window-x="-6"
     inkscape:window-y="-6"
     inkscape:window-maximized="1"
     inkscape:current-layer="svg3" />
  <path
     d="m 7.7070154,5.6696201 v 1.484375 H 6.4062341 V 5.6696201 H 5.404281 c -0.7460493,0 -1.0317946,0.2473692 -1.3027344,0.6367188 C 3.5720072,7.0674381 3.8500279,7.9530081 4.5019372,8.4118077 4.703337,8.5534075 4.9203625,8.6326983 5.1425622,8.6559483 5.6831117,8.7124982 6.535366,8.4197699 7.1445154,8.1696202 V 9.7711824 C 7.7667648,9.5144329 8.7626722,9.1044699 9.3671715,8.8571202 c 0.176,-0.0719 0.335669,-0.154672 0.480469,-0.2324219 C 10.016041,8.5341983 10.1646,8.4383888 10.291,8.3375889 c 0.388,-0.3090497 0.578125,-0.6721598 0.578125,-1.1308594 0,-0.4906995 -0.281079,-1.5371094 -1.5800784,-1.5371094 z"
     style="clip-rule:evenodd;fill:#ffffff;fill-rule:evenodd"
     id="path9"
     sodipodi:nodetypes="ccccsccccccccssc" />
  <path
     d="M 7.4176105,4.2373699 C 6.9292602,3.7142063 5.8803928,3.921302 5.5361092,4.3329653 5.0252074,5.0703875 5.0065461,6.6117486 4.0637371,6.8085084 c 0,-2.3092791 -0.00431,-1.0050773 -0.00431,-2.8207035 0,0 -0.7260862,-0.012894 -2.5472244,-0.012894 0,2.699187 0.1044526,6.5337001 0.1044526,8.2951441 2.5948155,0 1.2467171,-0.0092 2.4427717,-0.0092 0,-1.19826 0.02977,-1.911392 0.02977,-2.9653045 0.7608232,1.6459985 1.8299517,2.6728275 3.087843,2.9655105 l 3.3170733,0.0031 0.01445,-2.9815184 c 0.229052,-0.3252032 0.849618,-0.3209772 1.076235,-0.028294 0,2.0577354 0.0087,0.8573134 0.0087,3.0203884 1.92459,0 0.985357,0.0058 2.74168,0.0058 l 0.07102,-8.2602217 -2.731707,-0.00924 -0.01146,2.8943089 c -0.358969,0.3992671 -0.858947,0.4314184 -1.15163,0.00865 0,-1.2374827 -0.02528,-0.7595014 -0.02528,-2.9341812 -1.2320956,0 -0.8852989,-0.038094 -2.4921397,-0.038094 0,1.6764397 0.00559,4.0625208 0.00559,5.8094034 0,0 -1.5513713,0.2789616 -2.6111549,-1.6465927 C 6.973047,6.850784 6.3177362,6.3538994 7.3706826,6.5249918 c 0,0 0.8924567,-1.2469715 0.046928,-2.2876219 z"
     style="clip-rule:evenodd;fill:url(#paint0_linear);fill-rule:evenodd"
     id="path7"
     sodipodi:nodetypes="cccccccccccccccccccccccc" />
  <defs
     id="defs3">
    <linearGradient
       id="paint0_linear"
       x1="-0.13561618"
       y1="5.9626989"
       x2="5.3595"
       y2="19.5126"
       gradientUnits="userSpaceOnUse">
      <stop
         stop-color="#FE25A7"
         id="stop2"
         offset="0"
         style="stop-color:#54fafe;stop-opacity:1;" />
      <stop
         offset="1"
         stop-color="#A30CFF"
         id="stop3"
         style="stop-color:#000ee2;stop-opacity:1;" />
    </linearGradient>
  </defs>
</svg>
