<svg width="155" height="47" viewBox="0 0 155 47" fill="none" xmlns="http://www.w3.org/2000/svg">
<path fill-rule="evenodd" clip-rule="evenodd" d="M145.15 10.4451V0H155V11.9074C155 23.9192 145.358 33.7376 133.331 33.7376H116.742C106.962 33.7376 85.4619 43.0504 77.5518 46.9387V34.5732C78.8521 34.1185 80.8586 33.2723 83.3326 32.2289C92.1035 28.5298 106.751 22.3525 116.639 22.3525H133.331C139.863 22.3525 145.15 17.0255 145.15 10.4451ZM9.95318 10.3878C9.95318 16.932 15.2408 22.2297 21.7726 22.2297H77.7592V33.4483H21.6689C9.74582 33.4483 0 23.7879 0 11.7382V11.5305L9.95318 3.73975V10.3878Z" fill="#FFCF73"/>
</svg>
