<svg width="16" height="16" viewBox="0 0 16 16" fill="none" xmlns="http://www.w3.org/2000/svg">
<path fill-rule="evenodd" clip-rule="evenodd" d="M6.2392 3.5L9.55415 3.50004C12.3221 3.50004 14 5.28965 14 7.59185C14 9.6261 12.5502 10.8172 10.4145 11.6936C8.5005 12.479 8.48785 12.4838 7.93885 12.6966L7.9386 12.6967L7.7942 12.7527V10.9279C7.51205 11.0422 7.1595 11.1684 6.7564 11.2785C6.5966 11.3221 6.4257 11.3568 6.2392 11.383C5.4335 11.4969 4.56992 11.3377 3.7313 10.8075C2.51873 9.92735 2 8.72075 2 7.61745C2 5.23295 3.85066 3.5 6.2392 3.5ZM7.79575 10.1297C8.418 9.87295 9.4131 9.4626 10.0176 9.21525C10.1936 9.14335 10.3539 9.06 10.4987 8.98225C10.6671 8.89175 10.8144 8.79685 10.9408 8.69605C11.3288 8.387 11.5205 8.02275 11.5205 7.56405C11.5205 7.07335 11.2379 6.0272 9.9389 6.0272H6.0538C5.30775 6.0272 5.02255 6.2746 4.75161 6.66395C4.22207 7.42505 4.50079 8.31095 5.1527 8.76975C5.3541 8.91135 5.5708 8.991 5.793 9.01425C6.33355 9.0708 7.1866 8.7776 7.79575 8.52745V10.1297Z" fill="white"/>
<path fill-rule="evenodd" clip-rule="evenodd" d="M6.2392 3.5L9.55415 3.50004C12.3221 3.50004 14 5.28965 14 7.59185C14 9.6261 12.5502 10.8172 10.4145 11.6936C8.5005 12.479 8.48785 12.4838 7.93885 12.6966L7.9386 12.6967L7.7942 12.7527V10.9279C7.51205 11.0422 7.1595 11.1684 6.7564 11.2785C6.5966 11.3221 6.4257 11.3568 6.2392 11.383C5.4335 11.4969 4.56992 11.3377 3.7313 10.8075C2.51873 9.92735 2 8.72075 2 7.61745C2 5.23295 3.85066 3.5 6.2392 3.5ZM7.79575 10.1297C8.418 9.87295 9.4131 9.4626 10.0176 9.21525C10.1936 9.14335 10.3539 9.06 10.4987 8.98225C10.6671 8.89175 10.8144 8.79685 10.9408 8.69605C11.3288 8.387 11.5205 8.02275 11.5205 7.56405C11.5205 7.07335 11.2379 6.0272 9.9389 6.0272H6.0538C5.30775 6.0272 5.02255 6.2746 4.75161 6.66395C4.22207 7.42505 4.50079 8.31095 5.1527 8.76975C5.3541 8.91135 5.5708 8.991 5.793 9.01425C6.33355 9.0708 7.1866 8.7776 7.79575 8.52745V10.1297Z" fill="url(#paint0_linear)"/>
<defs>
<linearGradient id="paint0_linear" x1="-3.51773" y1="8.044" x2="5.3595" y2="19.5126" gradientUnits="userSpaceOnUse">
<stop stop-color="#FE25A7"/>
<stop offset="1" stop-color="#A30CFF"/>
</linearGradient>
</defs>
</svg>