<?xml version="1.0" encoding="UTF-8" standalone="no"?>
<svg
   width="199"
   height="262"
   viewBox="0 0 199 262"
   fill="none"
   version="1.1"
   id="svg7"
   sodipodi:docname="kn-biglogo.svg"
   inkscape:version="1.3.2 (091e20e, 2023-11-25, custom)"
   xmlns:inkscape="http://www.inkscape.org/namespaces/inkscape"
   xmlns:sodipodi="http://sodipodi.sourceforge.net/DTD/sodipodi-0.dtd"
   xmlns:xlink="http://www.w3.org/1999/xlink"
   xmlns="http://www.w3.org/2000/svg"
   xmlns:svg="http://www.w3.org/2000/svg">
  <defs
     id="defs7">
    <linearGradient
       id="linearGradient8"
       inkscape:collect="always">
      <stop
         style="stop-color:#166081;stop-opacity:1;"
         offset="0"
         id="stop8" />
      <stop
         style="stop-color:#00c7f5;stop-opacity:0.328125;"
         offset="1"
         id="stop9" />
    </linearGradient>
    <linearGradient
       id="paint0_linear"
       x1="-20.504519"
       y1="1.4362762"
       x2="-15.009402"
       y2="20.843901"
       gradientUnits="userSpaceOnUse"
       gradientTransform="matrix(14.286896,0,0,14.286896,1481.9205,634.18929)">
      <stop
         stop-color="#FE25A7"
         id="stop2"
         offset="0"
         style="stop-color:#ffffff;stop-opacity:1;" />
      <stop
         offset="1"
         stop-color="#A30CFF"
         id="stop3"
         style="stop-color:#001261;stop-opacity:1;" />
    </linearGradient>
    <linearGradient
       inkscape:collect="always"
       xlink:href="#linearGradient8"
       id="linearGradient9"
       x1="102.81406"
       y1="213.05031"
       x2="98.621422"
       y2="45.306404"
       gradientUnits="userSpaceOnUse"
       gradientTransform="matrix(0.92962867,0,0,0.92962867,6.9546604,16.493291)" />
  </defs>
  <sodipodi:namedview
     id="namedview7"
     pagecolor="#000000"
     bordercolor="#000000"
     borderopacity="0"
     inkscape:showpageshadow="2"
     inkscape:pageopacity="0.0"
     inkscape:pagecheckerboard="0"
     inkscape:deskcolor="#d1d1d1"
     inkscape:zoom="1.8778626"
     inkscape:cx="97.184959"
     inkscape:cy="148.04065"
     inkscape:window-width="1280"
     inkscape:window-height="730"
     inkscape:window-x="-6"
     inkscape:window-y="-6"
     inkscape:window-maximized="1"
     inkscape:current-layer="svg7" />
  <path
     d="m 91.850698,77.141821 c -6.977001,-7.474348 -21.962101,-4.515678 -26.880808,1.365793 -7.299177,10.53546 -7.565759,32.556756 -21.035612,35.367826 0,-32.992448 -0.05757,-14.359506 -0.05757,-40.299192 0,0 -10.373564,-0.184419 -36.3920042,-0.184419 0,38.563021 1.4924103,93.346211 1.4924103,118.511871 37.0717679,0 17.8116139,-0.12845 34.8995939,-0.12845 0,-17.11939 0.425738,-27.30782 0.425738,-42.36494 10.869759,23.51628 26.144359,38.18643 44.115685,42.36793 l 47.390639,0.0427 0.20679,-42.59669 c 3.27244,-4.64611 12.13848,-4.58569 15.37618,-0.40417 0,29.39853 0.12846,12.24832 0.12846,43.15198 27.49643,0 14.07756,0.0858 39.17008,0.0858 l 1.01436,-118.012918 -39.02763,-0.128453 -0.16442,41.350601 c -5.12854,5.70427 -12.27174,6.16362 -16.45318,0.12846 0,-17.679753 -0.36166,-10.8509 -0.36166,-41.920361 -17.60276,0 -12.64818,-0.544596 -35.60497,-0.544596 0,23.951108 0.0858,58.040777 0.0858,82.998287 0,0 -22.164272,3.9855 -37.305247,-23.52464 22.639469,-17.9128 13.277093,-25.0117 28.32037,-22.5673 0,0 12.750477,-17.81537 0.67001,-32.683022 z"
     style="clip-rule:evenodd;fill:#ffffff;fill-rule:evenodd;stroke:url(#linearGradient9);stroke-width:14.287;fill-opacity:1;stroke-dasharray:none;stroke-linejoin:round;stroke-linecap:round;paint-order:stroke markers fill"
     id="path7-4"
     sodipodi:nodetypes="ccccccccccccccccccccccccc" />
</svg>
