<?xml version="1.0" encoding="UTF-8" standalone="no"?>
<svg
   width="80"
   height="80"
   viewBox="0 0 80 80"
   fill="none"
   version="1.1"
   id="svg3"
   sodipodi:docname="logo_urfu.svg"
   inkscape:version="1.3.2 (091e20e, 2023-11-25, custom)"
   xmlns:inkscape="http://www.inkscape.org/namespaces/inkscape"
   xmlns:sodipodi="http://sodipodi.sourceforge.net/DTD/sodipodi-0.dtd"
   xmlns="http://www.w3.org/2000/svg"
   xmlns:svg="http://www.w3.org/2000/svg">
  <sodipodi:namedview
     id="namedview3"
     pagecolor="#ffffff"
     bordercolor="#000000"
     borderopacity="0.25"
     inkscape:showpageshadow="2"
     inkscape:pageopacity="0.0"
     inkscape:pagecheckerboard="0"
     inkscape:deskcolor="#d1d1d1"
     inkscape:zoom="1.2391684"
     inkscape:cx="74.646834"
     inkscape:cy="139.60975"
     inkscape:window-width="1280"
     inkscape:window-height="730"
     inkscape:window-x="-6"
     inkscape:window-y="-6"
     inkscape:window-maximized="1"
     inkscape:current-layer="svg3" />
  <path
     d="m 4.0884349,8.8064103 c 5.7036709,0.0079 8.1190321,3.9790277 10.6834271,8.2472877 l 20.998806,36.009245 c 0.98974,1.797009 1.966108,3.969238 1.936251,6.003176 -0.07738,5.296928 -6.953744,7.235569 -11.068431,7.43882 -3.011498,0.148321 -5.987171,-0.557923 -8.66573,-1.761902 l -1.672338,2.153116 c 0.974694,4.153857 4.820451,9.199055 10.105202,9.161319 9.178513,-0.06616 13.999205,-8.460567 17.688998,-15.296565 L 50.929903,48.097279 31.088981,14.073009 c -1.832598,-3.043502 1.175795,-5.2563287 4.37287,-5.2756747 l 0.729171,-2.819473 H 4.8204709 Z M 69.489944,13.290101 c 1.50395,-2.988092 4.52429,-4.4693607 7.6373,-4.4884677 l 0.7306,-2.823772 H 55.303013 l -0.731083,2.825205 c 3.81638,0.01887 8.961174,1.5006137 9.303904,4.4870347 z"
     fill="url(#paint0_linear_10_18)"
     id="path1"
     style="fill:url(#paint0_linear_10_18);stroke-width:0.238837" />
  <defs
     id="defs3">
    <linearGradient
       id="paint0_linear_10_18"
       x1="347.34601"
       y1="414.54901"
       x2="347.34601"
       y2="713.948"
       gradientUnits="userSpaceOnUse"
       gradientTransform="matrix(0.2388372,0,0,0.2388372,-53.809525,-93.031863)">
      <stop
         stop-color="#E5097F"
         id="stop1" />
      <stop
         offset="0.478431"
         stop-color="#E31E24"
         id="stop2" />
      <stop
         offset="1"
         stop-color="#FFED00"
         id="stop3" />
    </linearGradient>
  </defs>
</svg>
