<?xml version="1.0" encoding="UTF-8" standalone="no"?>
<svg
   width="80"
   height="80"
   viewBox="0 0 80 80"
   fill="none"
   version="1.1"
   id="svg1"
   sodipodi:docname="logo_vk.svg"
   inkscape:version="1.3.2 (091e20e, 2023-11-25, custom)"
   xmlns:inkscape="http://www.inkscape.org/namespaces/inkscape"
   xmlns:sodipodi="http://sodipodi.sourceforge.net/DTD/sodipodi-0.dtd"
   xmlns="http://www.w3.org/2000/svg"
   xmlns:svg="http://www.w3.org/2000/svg">
  <defs
     id="defs1" />
  <sodipodi:namedview
     id="namedview1"
     pagecolor="#ffffff"
     bordercolor="#000000"
     borderopacity="0.25"
     inkscape:showpageshadow="2"
     inkscape:pageopacity="0.0"
     inkscape:pagecheckerboard="0"
     inkscape:deskcolor="#d1d1d1"
     inkscape:zoom="6.15"
     inkscape:cx="39.918699"
     inkscape:cy="40"
     inkscape:window-width="1280"
     inkscape:window-height="730"
     inkscape:window-x="-6"
     inkscape:window-y="-6"
     inkscape:window-maximized="1"
     inkscape:current-layer="svg1" />
  <rect
     width="80"
     height="80"
     fill="white"
     id="rect1" />
  <path
     d="M65.726 43.2309C64.465 41.6909 64.8257 41.0057 65.726 39.6291C65.7422 39.6134 76.1524 25.7031 77.2249 20.9857L77.2314 20.9826C77.7644 19.2634 77.2314 18 74.6541 18H66.1258C63.9547 18 62.9536 19.0843 62.4174 20.2974C62.4174 20.2974 58.0752 30.3483 51.9325 36.8634C49.9499 38.746 49.0334 39.3494 47.9511 39.3494C47.4181 39.3494 46.5893 38.746 46.5893 37.0269V20.9826C46.5893 18.9209 45.9816 18 44.1842 18H30.7743C29.4125 18 28.6032 18.9617 28.6032 19.8574C28.6032 21.8123 31.6746 22.2617 31.9931 27.7617V39.6951C31.9931 42.31 31.5023 42.7909 30.4135 42.7909C27.5144 42.7909 20.4779 32.6991 16.308 21.1491C15.4663 18.9083 14.644 18.0031 12.4566 18.0031H3.9251C1.49077 18.0031 1 19.0874 1 20.3006C1 22.444 3.8991 33.1014 14.4815 47.1814C21.5342 56.7923 31.4666 62 40.5019 62C45.9328 62 46.5958 60.8434 46.5958 58.854C46.5958 49.6706 46.1051 48.8031 48.8254 48.8031C50.0864 48.8031 52.2575 49.4066 57.3277 54.0423C63.1227 59.5391 64.0749 62 67.3186 62H75.8468C78.2779 62 79.5097 60.8434 78.8012 58.5617C77.1794 53.7626 66.22 43.8909 65.726 43.2309Z"
     fill="#4B729F"
     id="path1"
     style="fill:#6a97ca;fill-opacity:1" />
</svg>
