<?xml version="1.0" encoding="UTF-8" standalone="no"?>
<svg
   width="16"
   height="16"
   viewBox="0 0 16 16"
   fill="none"
   version="1.1"
   id="svg3"
   sodipodi:docname="mathico.svg"
   inkscape:version="1.3.2 (091e20e, 2023-11-25, custom)"
   xmlns:inkscape="http://www.inkscape.org/namespaces/inkscape"
   xmlns:sodipodi="http://sodipodi.sourceforge.net/DTD/sodipodi-0.dtd"
   xmlns="http://www.w3.org/2000/svg"
   xmlns:svg="http://www.w3.org/2000/svg">
  <sodipodi:namedview
     id="namedview3"
     pagecolor="#ffffff"
     bordercolor="#000000"
     borderopacity="0.25"
     inkscape:showpageshadow="2"
     inkscape:pageopacity="0.0"
     inkscape:pagecheckerboard="0"
     inkscape:deskcolor="#d1d1d1"
     inkscape:zoom="32"
     inkscape:cx="9.703125"
     inkscape:cy="7.90625"
     inkscape:window-width="1280"
     inkscape:window-height="730"
     inkscape:window-x="-6"
     inkscape:window-y="-6"
     inkscape:window-maximized="1"
     inkscape:current-layer="svg3" />
  <defs
     id="defs3">
    <linearGradient
       id="paint0_linear"
       x1="-3.51773"
       y1="8.044"
       x2="5.3595"
       y2="19.5126"
       gradientUnits="userSpaceOnUse">
      <stop
         stop-color="#FE25A7"
         id="stop2" />
      <stop
         offset="1"
         stop-color="#A30CFF"
         id="stop3" />
    </linearGradient>
  </defs>
  <path
     style="fill:#05b0ff;fill-opacity:1;stroke-width:0.0540048"
     d="M 6.9383472,15.622879 C 5.2650652,15.397752 3.7586683,14.643085 2.5335913,13.416216 1.1160597,11.996606 0.37709488,10.336085 0.28459271,8.3624917 0.18205451,6.1747845 0.96277358,4.1747701 2.531756,2.6057775 4.1045556,1.0329766 6.0843715,0.25989339 8.2884663,0.35787397 10.24733,0.44494267 11.923726,1.1912288 13.342192,2.6076191 c 1.581683,1.5793657 2.354728,3.5708613 2.244369,5.7818703 -0.09802,1.9638446 -0.842022,3.6311956 -2.242611,5.0258126 -1.129739,1.124928 -2.332167,1.781703 -3.8673802,2.11239 -0.5670222,0.122147 -1.9518874,0.174062 -2.5382226,0.09521 z M 9.434179,15.467258 c 3.009271,-0.613255 5.316311,-2.918762 5.964453,-5.9604941 0.155737,-0.7308646 0.168823,-2.147593 0.02647,-2.8656163 -0.617156,-3.1129543 -2.895928,-5.429348 -5.9923627,-6.09125867 -0.786874,-0.16821197 -2.2037355,-0.16821197 -2.9906108,0 C 3.3866138,1.2030677 1.1277683,3.4619961 0.47607769,6.5161569 0.30697636,7.3086585 0.30643753,8.7246354 0.47494265,9.5067639 1.1918797,12.834522 3.8378433,15.225844 7.2083745,15.592211 7.6882453,15.644321 8.8984667,15.576421 9.434183,15.467307 Z M 6.6683239,15.10455 C 4.4615165,14.707277 2.4972103,13.229551 1.4866083,11.206385 0.99993125,10.232089 0.75538313,9.1537656 0.75502243,7.980479 0.75443975,6.096172 1.4154437,4.4357886 2.7110664,3.0670545 4.9089036,0.745186 8.3737637,0.15532308 11.231724,1.6164755 c 1.676075,0.8569074 2.929843,2.3260277 3.538253,4.1460037 0.251509,0.7523498 0.350126,1.3768523 0.34987,2.2155567 -4.8e-4,1.5271244 -0.385201,2.8012361 -1.23315,4.0837781 -0.364593,0.551452 -1.23286,1.439441 -1.790898,1.831577 -0.836841,0.588046 -1.980662,1.056751 -2.9702593,1.217122 -0.6361272,0.103094 -1.868032,0.100099 -2.4572158,-0.0063 z m 2.3762078,-0.04459 c 1.2208493,-0.200047 2.3208003,-0.673437 3.2660633,-1.405641 0.31121,-0.241062 1.07216,-0.990982 1.218693,-1.201024 l 0.08476,-0.12152 H 10.424716 7.2353734 V 13.7359 15.140012 L 7.896931,15.1398 C 8.2607885,15.139699 8.7772081,15.10372 9.0445317,15.06 Z M 8.801511,13.035844 v -0.268008 l 0.3190362,0.01866 c 0.3696493,0.02167 0.4370291,0.05225 0.4370291,0.197803 0,0.122398 -0.2303477,0.231366 -0.3851649,0.182219 -0.069217,-0.02193 -0.1008749,-0.0051 -0.1008749,0.05262 0,0.05425 -0.048421,0.0847 -0.135013,0.0847 -0.1258752,0 -0.1350119,-0.01817 -0.1350119,-0.268009 z m 0.4725417,-0.06954 c -0.012402,-0.03708 -0.054909,-0.06752 -0.09451,-0.06752 -0.039601,0 -0.082133,0.03044 -0.09451,0.06752 -0.01338,0.04021 0.024904,0.06752 0.09451,0.06752 0.069605,0 0.1078899,-0.02731 0.09451,-0.06752 z M 7.9641545,13.14137 c -0.018517,-0.02994 0.018867,-0.07391 0.08306,-0.0976 L 8.1639367,13.000565 8.0188839,12.828182 7.8738322,12.655798 h 0.1641317 c 0.098719,0 0.1867242,0.0377 0.2208189,0.09446 0.053995,0.09008 0.059395,0.09008 0.1133769,0 0.031181,-0.05199 0.1170856,-0.09446 0.1909163,-0.09446 0.1136158,0 0.1260605,0.01529 0.081031,0.09934 -0.1158201,0.216419 -0.3749006,0.440644 -0.5091307,0.440644 -0.075444,0 -0.1523065,-0.02455 -0.170819,-0.0545 z m 1.7397138,0.02068 c -0.02106,-0.02104 -0.038272,-0.143594 -0.038272,-0.272306 v -0.234026 h 0.3780327 c 0.216019,0 0.378032,0.02318 0.378032,0.05399 0,0.0297 -0.09574,0.05399 -0.212759,0.05399 -0.20687,0 -0.213222,0.0051 -0.2295183,0.202513 -0.012903,0.155898 -0.042131,0.206147 -0.1269938,0.218298 -0.060623,0.0089 -0.1274575,-0.0012 -0.1485119,-0.02256 z m 0.9068007,-0.0203 c -0.01835,-0.0297 0.01666,-0.05399 0.07783,-0.05399 0.141653,0 0.140974,-0.08031 -0.0023,-0.261508 l -0.113407,-0.143532 0.117789,-0.01779 c 0.06724,-0.0099 0.150673,0.02455 0.194447,0.08106 0.07263,0.09358 0.07965,0.09384 0.133314,0.0037 0.03115,-0.05199 0.117362,-0.09446 0.191572,-0.09446 h 0.134917 l -0.162732,0.236527 c -0.08949,0.130088 -0.202019,0.251598 -0.250032,0.270026 -0.130774,0.05023 -0.283835,0.04033 -0.321489,-0.02056 z M 5.3814818,12.816318 c 0.5231658,-0.256194 1.0588959,-0.919484 1.3946531,-1.726743 0.055598,-0.133674 0.1155569,-0.260769 0.1332642,-0.282443 0.017702,-0.02167 0.089938,0.130204 0.1605186,0.337528 0.070582,0.207323 0.1488362,0.376939 0.1738957,0.376939 0.025056,0 0.045564,-0.583237 0.045564,-1.296098 V 8.9293786 h 0.1356505 c 0.1299868,0 0.1339458,0.01003 0.094836,0.2295235 -0.022449,0.1262309 -0.040965,0.5871073 -0.041141,1.0241539 -2.708e-4,0.674351 0.013493,0.808463 0.09094,0.88591 0.08569,0.08569 0.1000352,0.08557 0.234571,-0.0026 C 8.0049694,10.934849 8.1176164,10.643487 8.322475,9.7259707 L 8.5003283,8.9294575 H 8.76441 9.0284916 l -0.045989,0.3915339 c -0.079616,0.677858 -0.05779,2.0417576 0.035629,2.2276956 0.1001736,0.199369 0.2835837,0.236777 0.4140128,0.08444 0.1132771,-0.132282 0.1794308,-0.142805 0.1794308,-0.02856 0,0.138395 -0.1580469,0.334381 -0.3256123,0.403786 -0.4060816,0.168214 -0.8341682,-0.181941 -0.94505,-0.772994 L 8.3033419,11.035088 8.117863,11.345881 c -0.2892952,0.484741 -0.5208143,0.604745 -0.7504743,0.38899 l -0.1320233,-0.12398 v 0.333856 0.333869 l 3.2267826,-0.0139 3.226784,-0.0139 0.201633,-0.297034 c 0.272219,-0.400993 0.652391,-1.180079 0.816948,-1.67414 C 14.976784,9.4711719 15.03921,9.0310922 15.036918,7.9574147 15.035062,7.0610241 15.020096,6.89969 14.891914,6.3880135 14.202418,3.6357076 12.141963,1.622589 9.3955546,1.0179306 9.164723,0.9670674 8.6130738,0.9158284 8.112942,0.8987904 l -0.8775771,-0.030067 0.00364,2.774764 c 0.00214,1.6379333 0.023039,2.7305028 0.050976,2.666736 C 7.3159942,6.2508413 7.4262608,5.9713442 7.5350016,5.6891786 7.7749445,5.0665426 8.1574609,4.3229373 8.5114602,3.7909157 8.8578938,3.2702942 9.5806,2.5548893 9.9421198,2.3747383 11.079839,1.8077887 11.676065,3.0264014 10.751635,4.0292837 10.471592,4.3330976 10.165408,4.478584 9.9538046,4.4083651 9.4161541,4.2299804 9.7733991,3.2060137 10.373587,3.2051618 c 0.07753,-1.253e-4 0.226701,0.058004 0.331474,0.1290748 L 10.89556,3.4634994 10.95247,3.3477418 C 11.111929,3.0233822 11.048575,2.62254 10.824241,2.5364483 10.672738,2.4783189 10.368012,2.4999921 10.213626,2.5797948 9.3679517,3.0171182 8.1165962,5.7759592 7.6948448,8.1329308 7.601362,8.6553937 7.59942,8.6594777 7.4449888,8.6594777 H 7.2893461 L 7.287722,7.6198888 C 7.2868042,7.0289484 7.2664828,6.6152525 7.2406751,6.661305 7.1802532,6.7690448 6.8195818,8.1389317 6.7749901,8.4299544 l -0.035166,0.2295233 h 0.2477678 c 0.2282831,0 0.2477689,0.01003 0.2477689,0.1350132 0,0.1254919 -0.018505,0.135013 -0.2624291,0.135013 H 6.7105052 L 6.5609611,9.5640534 C 6.3745787,10.354926 6.0903599,11.186678 5.8735435,11.575732 5.2983293,12.607918 4.6552603,12.96986 4.1763505,12.530971 4.0136196,12.381839 3.9768251,12.306834 3.9550104,12.079805 c -0.015272,-0.158968 6.627e-4,-0.322443 0.038297,-0.392749 0.063905,-0.119392 0.065295,-0.118891 0.1603821,0.05963 0.1651891,0.310115 0.4892377,0.397134 0.8468801,0.227418 0.3946861,-0.187278 0.5337994,-0.650912 0.2956607,-0.985355 -0.2593724,-0.364249 -0.8304637,-0.324135 -1.2294268,0.08644 -0.2498799,0.25711 -0.3409778,0.494189 -0.3414462,0.888615 -5.388e-4,0.45242 0.2037873,0.771932 0.6207531,0.970688 0.2807698,0.133835 0.5939821,0.0981 1.035362,-0.118013 z m 4.47055,-1.261332 C 9.6064802,11.446119 9.4912713,11.229135 9.4632727,10.822832 9.4323288,10.373744 9.588643,9.9285274 9.8932974,9.598004 10.422195,9.0242272 11.123716,8.9983321 11.123716,9.5526541 c 0,0.4140583 -0.389742,0.8612039 -0.878207,1.0075529 -0.204676,0.06139 -0.21156,0.07091 -0.182031,0.252851 0.07369,0.454125 0.498647,0.538361 0.850417,0.168576 0.307122,-0.322856 0.369037,-0.264689 0.119553,0.112247 -0.259234,0.391726 -0.832899,0.615635 -1.1814136,0.461105 z m 0.6383472,-1.439344 c 0.06279,-0.1227716 0.09067,-0.2800836 0.081,-0.4572027 -0.01253,-0.2291103 -0.03108,-0.2700139 -0.122722,-0.2700139 -0.148905,0 -0.349064,0.418369 -0.390024,0.8152256 l -0.03218,0.311833 0.184101,-0.106366 c 0.101264,-0.0585 0.227179,-0.190563 0.279831,-0.293517 z m 0.698804,-0.9034213 c -0.03601,-0.012527 -0.06548,-0.092958 -0.06548,-0.1797878 0,-0.1401618 0.01126,-0.1509359 0.09985,-0.095587 0.160081,0.099972 0.367419,0.016036 0.434286,-0.1757409 0.05575,-0.1598689 0.0466,-0.1802143 -0.170107,-0.3786432 -0.186919,-0.1711561 -0.258794,-0.2048687 -0.391027,-0.183421 l -0.162015,0.026308 0.127494,-0.1069881 c 0.173899,-0.1459499 0.324121,-0.134324 0.50512,0.039087 l 0.152483,0.1460874 0.164931,-0.2000954 c 0.202585,-0.2457721 0.427092,-0.2794346 0.427092,-0.064018 0,0.1183885 -0.01765,0.1316055 -0.135713,0.101977 -0.155267,-0.038961 -0.296325,0.052993 -0.296325,0.1932426 0,0.05174 0.123324,0.2093661 0.274064,0.3503674 0.233579,0.2184863 0.2974,0.2516853 0.432037,0.2247628 0.2014,-0.040339 0.200923,-0.00501 -0.0013,0.099345 -0.236994,0.1225231 -0.340267,0.102228 -0.542729,-0.106612 -0.19719,-0.2034404 -0.270024,-0.2336952 -0.270024,-0.112125 0,0.2081007 -0.385842,0.4875853 -0.582588,0.4220018 z M 3.8330751,8.5262688 c 0,-0.293854 0.017101,-0.358285 0.108003,-0.4069308 0.076745,-0.041091 0.1392787,-0.041091 0.2160183,0 0.090915,0.048608 0.1080152,0.1131275 0.1080152,0.4069308 V 8.8753959 H 4.5621379 4.8591641 V 8.5226231 c 0,-0.316229 0.012578,-0.3575207 0.1215081,-0.3986497 0.2305733,-0.087069 0.3105274,0.016537 0.3105274,0.4022954 V 8.8753959 H 5.5882258 5.8852519 V 8.4668115 c 0,-0.2247128 -0.024718,-0.4547623 -0.054923,-0.5112129 C 5.7499512,7.8054268 5.3950721,7.7237074 5.1314666,7.7946904 5.0139049,7.8263866 4.9032837,7.8756201 4.8856293,7.9041847 4.8667749,7.9346278 4.796456,7.918717 4.7152136,7.8654736 4.5381734,7.7494654 4.095141,7.7527221 3.9141256,7.871739 c -0.1182257,0.077423 -0.1350569,0.0783 -0.1350569,0.00627 0,-0.06264 -0.064192,-0.082308 -0.2700249,-0.082308 H 3.2390216 v 0.5400444 0.540052 H 3.5360478 3.833074 Z M 4.6931835,7.5185633 c 0.1289407,-0.044976 0.1899302,-0.044976 0.234879,0 0.033399,0.033324 0.1834395,0.060761 0.3334373,0.060761 L 5.5342243,7.5793744 5.5072273,7.121643 C 5.4689816,6.4733992 5.4160638,6.4275097 4.675286,6.400086 4.0957686,6.3786633 3.7915891,6.4349137 3.6653531,6.5870522 c -0.055611,0.067024 -0.053895,0.091454 0.00914,0.1314175 0.105084,0.066522 0.5760058,0.064018 0.6175822,-0.00376 0.018354,-0.029691 0.1413021,-0.053994 0.2732107,-0.053994 0.1771831,0 0.2398338,0.021172 0.2398338,0.081056 0,0.044599 -0.010394,0.081055 -0.023101,0.081055 -0.1710044,0 -0.9095471,0.1352135 -1.0429077,0.1909376 -0.1436698,0.060009 -0.1761058,0.103606 -0.1761058,0.2366268 0,0.1222721 0.037084,0.1831576 0.148513,0.2436046 0.1772847,0.096214 0.7356301,0.1098692 0.9816189,0.024179 z M 4.2786143,7.3275004 C 4.1884011,7.2910439 4.1925978,7.1659033 4.2852456,7.1303741 4.4411889,7.0704902 4.8591606,7.0291491 4.8583727,7.073623 4.8549848,7.2640342 4.5031808,7.4181149 4.2786484,7.3275132 Z M 3.8981136,5.8646317 3.9140866,5.5001076 4.1503313,5.8676132 C 4.3782587,6.2221902 4.3934676,6.2344799 4.5823692,6.2167027 4.7562752,6.2002909 4.7986895,6.1637094 4.9617813,5.8887979 5.0627688,5.7185815 5.1549136,5.5888301 5.1665421,5.600456 c 0.01165,0.011277 0.026208,0.1517754 0.032397,0.3114309 l 0.011276,0.290271 0.2835248,0.016287 0.2835235,0.016287 V 5.6625945 5.0904459 L 5.3608523,5.106231 4.9444515,5.1220161 4.780301,5.4045951 C 4.6900126,5.5600035 4.6013641,5.6876002 4.5832926,5.6881137 4.5652275,5.6885898 4.4616845,5.5553932 4.3532216,5.3920422 L 4.1560001,5.0952064 H 3.7515161 3.3470319 V 5.6622561 6.229306 h 0.2675568 0.2675557 z"
     id="path1" />
  <path
     style="fill:#ffffff;stroke:none;stroke-width:0.0325203;fill-opacity:1"
     d="m 4.5365854,12.977873 c -0.5898178,-0.14267 -0.9139785,-0.730079 -0.751939,-1.362581 0.1550087,-0.605058 0.8292757,-1.020387 1.2816898,-0.789484 0.1490321,0.07606 0.2174706,0.149938 0.282017,0.304419 0.071278,0.170592 0.06214,0.312357 -0.032357,0.501988 -0.1249522,0.250746 -0.3716318,0.400414 -0.659577,0.400184 -0.1950458,-1.56e-4 -0.3291352,-0.08165 -0.4800945,-0.291771 -0.064562,-0.08987 -0.1240765,-0.163392 -0.1322545,-0.163392 -0.039863,0 -0.1090228,0.24327 -0.1083353,0.381069 0.00127,0.254942 0.050063,0.398393 0.1811711,0.532659 0.1615128,0.165404 0.2954167,0.224633 0.5058946,0.223769 C 4.859247,12.713762 5.0362445,12.62623 5.285242,12.38713 5.8359447,11.858318 6.1820629,11.108535 6.5523334,9.6422764 L 6.7247912,8.9593496 6.9464059,8.9495792 C 7.2042576,8.9382114 7.2590101,8.9047948 7.2455633,8.7669974 L 7.2357724,8.6666667 6.9965317,8.657042 6.757291,8.6474172 6.7789101,8.5032501 C 6.8099931,8.295974 6.9402407,7.7663112 7.0985883,7.203252 l 0.1371841,-0.4878048 0.02075,0.308943 c 0.011413,0.1699187 0.022388,0.6126017 0.02439,0.9837399 l 0.00364,0.6747967 h 0.1293318 c 0.098974,0 0.14,-0.017175 0.174783,-0.073171 C 7.613666,8.5695122 7.6879766,8.2670833 7.7538023,7.9376917 8.1642898,5.883615 9.1527876,3.5765204 9.9465372,2.8199803 10.185807,2.5919273 10.319279,2.5320346 10.591735,2.5304628 c 0.233258,-0.00135 0.312011,0.044197 0.388363,0.2245902 0.07278,0.1719596 0.04276,0.4627355 -0.06266,0.6069103 -0.03999,0.054693 -0.05288,0.051707 -0.216942,-0.050283 -0.335616,-0.208628 -0.66942,-0.116872 -0.8935266,0.2456124 -0.111706,0.1806802 -0.152264,0.5040779 -0.083913,0.6690927 0.079582,0.1921278 0.3401824,0.259678 0.5921294,0.1534858 0.180879,-0.076238 0.436057,-0.3012391 0.596269,-0.5257563 C 11.35082,3.2384004 11.308624,2.5510531 10.814985,2.2826484 10.746891,2.2456238 10.638399,2.2287071 10.471545,2.229097 10.164451,2.2298145 9.9171486,2.3379925 9.554292,2.6303322 8.7358169,3.2897469 8.0850767,4.2735558 7.5009616,5.7346208 L 7.295028,6.2497298 7.2735301,5.6562371 C 7.2617063,5.3298159 7.2520325,4.1209558 7.2520325,2.9698813 V 0.87701834 l 0.4146342,0.0181273 c 1.3481385,0.0589388 1.7715431,0.11746086 2.4414483,0.33745166 2.442878,0.8022193 4.200379,2.7490833 4.807223,5.3251822 0.08889,0.3773452 0.09077,0.4058128 0.09105,1.3771798 2.92e-4,1.0167631 -0.01929,1.2527812 -0.1457,1.7560977 -0.191882,0.764004 -0.586083,1.650465 -1.028029,2.311785 l -0.143161,0.214225 -1.438246,0.02151 c -0.791034,0.01183 -2.239464,0.02152 -3.2187327,0.02155 l -1.7804878,4e-5 v -0.294338 -0.294338 l 0.1087607,0.08296 c 0.1311356,0.100021 0.2892507,0.107721 0.4314504,0.02101 0.083881,-0.05115 0.2696182,-0.298415 0.4565688,-0.607815 0.041846,-0.06925 0.032857,-0.08533 0.1203193,0.215157 0.1500663,0.515565 0.5340872,0.780826 0.9180966,0.634172 0.1728185,-0.066 0.338788,-0.26788 0.338788,-0.41209 0,-0.121271 -0.064472,-0.119747 -0.2064137,0.0049 -0.061113,0.05366 -0.1395597,0.09756 -0.1743246,0.09756 -0.090287,0 -0.2052318,-0.135389 -0.238917,-0.28141 C 8.926011,11.077634 8.938695,9.7189387 9.028404,9.0644349 L 9.0494911,8.9105691 H 8.7692676 c -0.2639798,0 -0.2811905,0.00424 -0.296903,0.073171 -0.00917,0.040244 -0.076756,0.3365854 -0.1501822,0.6585366 -0.20313,0.8906603 -0.2973486,1.1599313 -0.4682858,1.3383313 -0.078136,0.08155 -0.1604833,0.142129 -0.1829942,0.134625 -0.022511,-0.0075 -0.069507,-0.05192 -0.1044361,-0.0987 -0.059659,-0.07991 -0.062988,-0.134962 -0.05494,-0.908519 0.00471,-0.4529011 0.010448,-0.9039447 0.012748,-1.0023186 L 7.5284553,8.9268293 7.4065041,8.9167359 7.2845528,8.9066429 7.2844446,9.6809636 c -1.347e-4,0.9621884 -0.033835,1.8162204 -0.06944,1.7597584 -0.014688,-0.02329 -0.079355,-0.177714 -0.1437047,-0.343161 -0.064349,-0.165447 -0.1296888,-0.300813 -0.1451984,-0.300813 -0.01551,0 -0.1295715,0.208537 -0.2534706,0.463415 -0.4675338,0.961783 -1.0575512,1.538727 -1.7375551,1.699056 -0.2217873,0.05229 -0.2533232,0.05377 -0.39849,0.01865 z m 5.8867426,-1.41544 c 0.238743,-0.07185 0.4856,-0.259132 0.633497,-0.480609 0.126863,-0.189978 0.165317,-0.317596 0.0957,-0.317596 -0.01896,0 -0.11042,0.07128 -0.203252,0.158391 -0.27095,0.254264 -0.455539,0.31754 -0.657668,0.225444 -0.105467,-0.04805 -0.210304,-0.245692 -0.210304,-0.396463 0,-0.107545 0.0087,-0.116012 0.186992,-0.182404 0.521898,-0.194322 0.853325,-0.5797645 0.858323,-0.9982116 0.0035,-0.295999 -0.15203,-0.4446634 -0.443689,-0.4240062 -0.469294,0.033239 -0.981392,0.5022146 -1.1569514,1.0595278 -0.085444,0.271242 -0.094407,0.694371 -0.020091,0.948439 0.054935,0.187809 0.1968663,0.35858 0.3477739,0.418439 0.1208108,0.04792 0.3913315,0.04272 0.5696695,-0.01095 z m 1.09454,-2.4208288 c 0.160793,-0.1019723 0.25449,-0.2129369 0.25449,-0.3013925 0,-0.1086192 0.07269,-0.098316 0.206285,0.029237 0.276559,0.2640601 0.334364,0.2791362 0.598593,0.1561203 0.20937,-0.097476 0.228316,-0.165041 0.03774,-0.1345659 -0.103527,0.016555 -0.157029,0.00641 -0.241455,-0.045763 -0.15145,-0.093602 -0.471077,-0.4461288 -0.471077,-0.5195672 0,-0.1066546 0.09081,-0.1630709 0.262486,-0.1630709 h 0.160278 V 8.049925 c 0,-0.2423561 -0.21073,-0.2167083 -0.463272,0.056385 L 11.707602,8.2731974 11.601768,8.1730211 C 11.383677,7.9665876 11.224255,7.9550797 11.022886,8.1312345 l -0.112317,0.098253 0.130081,-0.00547 c 0.07155,-0.00301 0.154857,-0.00342 0.185139,-9.226e-4 0.07197,0.00594 0.449008,0.3554055 0.449008,0.4161675 0,0.091164 -0.09989,0.2383193 -0.195246,0.2876292 -0.08654,0.04475 -0.108882,0.044808 -0.214803,5.506e-4 -0.06502,-0.027168 -0.123749,-0.049395 -0.130508,-0.049395 -0.02006,0 -0.01397,0.2504745 0.0075,0.3062832 0.0316,0.082344 0.21111,0.061955 0.376177,-0.042728 z"
     id="path3" />
  <path
     style="fill:#ffffff;stroke:none;stroke-width:0.0325203;fill-opacity:1"
     d="m 7.2520325,13.739837 v -1.382113 h 3.1556155 3.155616 l -0.0383,0.07317 c -0.06374,0.121763 -1.00288,1.036403 -1.281057,1.247642 -0.703022,0.533855 -1.528275,0.94316 -2.3739833,1.177437 -0.7171623,0.198667 -1.2495303,0.265906 -2.1056911,0.265951 l -0.5121951,2.7e-5 z m 1.7462257,-0.426545 c 0.039286,-0.01054 0.076071,-0.04326 0.081745,-0.07273 0.00775,-0.04027 0.047236,-0.05379 0.1589938,-0.05446 0.2087965,-0.0012 0.3288939,-0.08507 0.3157598,-0.220403 C 9.5414508,12.8286 9.4580278,12.793573 9.0813009,12.766913 l -0.300813,-0.02129 v 0.242748 c 0,0.301677 0.046377,0.370871 0.2177704,0.324913 z M 8.2861678,13.157246 c 0.144241,-0.07557 0.396759,-0.371704 0.396759,-0.465295 0,-0.06541 -0.2084246,-0.04976 -0.3003653,0.02256 -0.081097,0.06379 -0.081777,0.06379 -0.1395072,0 -0.042524,-0.04699 -0.1000812,-0.0641 -0.2155742,-0.0641 -0.086659,0 -0.1575614,0.0087 -0.1575614,0.0194 0,0.01067 0.058705,0.08609 0.1304561,0.167605 l 0.1304561,0.148206 -0.1008457,0.06133 c -0.082807,0.05036 -0.093796,0.06982 -0.061434,0.108817 0.050062,0.06032 0.2039345,0.06104 0.3176162,0.0015 z m 1.6512548,0.0095 c 0.012409,-0.02008 0.039167,-0.111542 0.059462,-0.203252 l 0.0369,-0.166746 0.183832,-0.01644 c 0.101107,-0.009 0.195521,-0.02813 0.209808,-0.04242 0.05682,-0.05682 -0.08626,-0.08651 -0.419295,-0.08698 l -0.3495938,-4.97e-4 v 0.237398 c 0,0.141283 0.0158,0.253198 0.039024,0.276423 0.049253,0.04925 0.2099353,0.05094 0.2398616,0.0025 z m 1.0053314,-0.0018 c 0.07318,-0.03334 0.406839,-0.438605 0.406839,-0.494148 0,-0.01123 -0.05797,-0.02041 -0.128814,-0.02041 -0.0894,0 -0.148484,0.02111 -0.193094,0.069 l -0.06428,0.069 -0.08771,-0.069 c -0.08513,-0.06697 -0.306585,-0.0975 -0.306585,-0.04227 0,0.0147 0.0435,0.08421 0.09666,0.154471 0.121637,0.160761 0.127379,0.241566 0.01716,0.241566 -0.07652,0 -0.108989,0.05903 -0.05962,0.108401 0.03496,0.03496 0.228327,0.02491 0.319448,-0.0166 z"
     id="path4" />
  <path
     style="fill:#ffffff;stroke:none;stroke-width:0.0325203;fill-opacity:1"
     d="m 10.064559,10.286739 c 0.05607,-0.5049417 0.309595,-0.998764 0.443844,-0.8645148 0.05687,0.056874 0.04982,0.4892208 -0.01024,0.6275388 -0.05842,0.134543 -0.22088,0.305288 -0.357888,0.376137 l -0.09672,0.05002 z"
     id="path5" />
  <path
     style="fill:#ffffff;stroke:none;stroke-width:0.0325203;fill-opacity:1"
     d="M 7.300813,15.5761 C 5.8915213,15.47523 4.328574,14.843109 3.1615768,13.90202 1.9132826,12.895373 0.95353288,11.372666 0.55294358,9.7632511 0.32947224,8.8654286 0.30234506,7.4869558 0.48980898,6.5550556 0.72599467,5.3809551 1.2748328,4.1999317 2.0165934,3.2696274 3.1395329,1.8612547 4.8089766,0.86884582 6.6224985,0.53162477 7.0923746,0.44425213 8.7782543,0.44455806 9.2520325,0.53210194 12.215144,1.0796205 14.551882,3.2658315 15.299988,6.1904621 c 0.138171,0.5401616 0.175491,0.8125044 0.200796,1.4652846 0.03775,0.973731 -0.06163,1.7752484 -0.320512,2.5850193 -0.656246,2.052732 -2.022942,3.650734 -3.911979,4.574064 -0.988328,0.483078 -1.8378484,0.70127 -2.9079619,0.746884 -0.2250114,0.0096 -0.4822823,0.02199 -0.5717132,0.02755 -0.089431,0.0056 -0.3089431,-3.62e-4 -0.4878049,-0.01316 z M 9.3038481,15.093943 C 10.39342,14.872759 11.588137,14.333359 12.352089,13.7177 c 0.344183,-0.277372 1.051696,-0.994063 1.310458,-1.327456 0.6038,-0.777948 1.128196,-1.903658 1.310794,-2.8138583 C 15.117697,8.8568081 15.168929,7.7436325 15.087837,7.0885779 14.926246,5.7832439 14.312491,4.3922276 13.437258,3.3476952 12.352957,2.053655 10.831668,1.1998939 9.0555138,0.88862182 c -0.4600419,-0.0806226 -1.781067,-0.0806226 -2.2411089,0 C 4.7240088,1.254965 3.0273431,2.3576969 1.8771245,4.097561 1.125225,5.2349125 0.7481225,6.5359613 0.74800693,7.9931515 0.74786969,9.7232195 1.2689511,11.218028 2.3318213,12.536585 c 1.1206671,1.390259 2.8503537,2.382288 4.5624876,2.616729 0.1162602,0.01592 0.6284553,0.02481 1.1382114,0.01975 0.7956143,-0.0079 0.9756013,-0.01909 1.2713278,-0.07913 z"
     id="path6" />
  <path
     style="fill:#ffffff;stroke:none;stroke-width:0.0325203;fill-opacity:1"
     d="M 5.1219512,7.554956 C 5.0682927,7.548062 4.9908499,7.5255023 4.9498561,7.5048232 4.8932726,7.47628 4.8301443,7.4765562 4.6877359,7.5059702 4.388777,7.5677192 3.9121383,7.5550718 3.7491151,7.4810644 3.5285306,7.3809259 3.5129709,7.1476309 3.7202832,7.0487705 3.8244631,6.9990906 4.2942815,6.8980297 4.6585366,6.8469463 c 0.1244782,-0.017457 0.1544715,-0.034061 0.1544715,-0.085516 0,-0.039629 -0.033928,-0.076918 -0.089431,-0.098291 C 4.6208517,6.6235811 4.3331284,6.6521255 4.2650462,6.7086287 4.1959172,6.7660007 3.7480115,6.7538187 3.6871028,6.69291 3.6431093,6.6489165 3.648373,6.6347981 3.7363762,6.5607483 3.8791428,6.4406182 4.2095577,6.3923832 4.7080437,6.4189014 5.3609806,6.453636 5.445174,6.5199678 5.4794754,7.026674 c 0.010207,0.1507765 0.025123,0.3363341 0.033147,0.4123504 L 5.527211,7.5772358 5.3733616,7.5723632 C 5.2887444,7.5696833 5.1756098,7.56185 5.1219512,7.554956 Z M 4.6896269,7.2973483 c 0.049637,-0.025668 0.1148388,-0.084199 0.1448938,-0.1300687 0.04657,-0.071074 0.047816,-0.087787 0.00844,-0.1130867 -0.025415,-0.016328 -0.082794,-0.023171 -0.1275098,-0.015206 -0.044715,0.00796 -0.1585104,0.023999 -0.2528775,0.03563 -0.2621384,0.032312 -0.3511537,0.1722839 -0.1695987,0.2666852 0.090626,0.047122 0.2559637,0.0288 0.3966559,-0.043954 z"
     id="path7" />
  <path
     style="fill:#ffffff;stroke:none;stroke-width:0.0325203;fill-opacity:1"
     d="M 3.2520325,8.3252033 V 7.804878 h 0.2113821 c 0.17093,0 0.2243648,0.012983 0.2792229,0.067841 L 3.8104785,7.94056 3.9681786,7.872719 c 0.211199,-0.090855 0.5035013,-0.090575 0.7156427,6.853e-4 l 0.1592931,0.068526 0.1541518,-0.074624 c 0.2948315,-0.1427255 0.7817044,-0.061521 0.835511,0.1393534 0.010996,0.041052 0.020193,0.2465921 0.020437,0.4567547 l 4.44e-4,0.3821139 H 5.5802832 5.3069078 L 5.2957303,8.5174041 C 5.2856945,8.2227943 5.2770189,8.1831839 5.2107919,8.1295995 5.1517663,8.0818418 5.1160348,8.075905 5.0319301,8.0998817 4.870523,8.1458959 4.8455285,8.2052868 4.8455285,8.542801 V 8.8455285 H 4.5738346 4.3021407 l -0.018147,-0.32933 C 4.2634327,8.1430632 4.2315491,8.0845528 4.0487805,8.0845528 c -0.1827687,0 -0.2146522,0.05851 -0.2352132,0.4316457 l -0.018147,0.32933 H 3.5237264 3.2520325 Z"
     id="path8" />
  <path
     style="fill:#ffffff;stroke:none;stroke-width:0.0325203;fill-opacity:1"
     d="M 3.3495935,5.6585366 V 5.1056911 l 0.398374,2.844e-4 0.398374,2.844e-4 0.120567,0.1867075 c 0.1754878,0.2717564 0.3011148,0.4126463 0.3442001,0.3860181 0.020507,-0.012674 0.1070953,-0.1395332 0.192418,-0.281909 0.1406158,-0.2346421 0.1645868,-0.2588651 0.2561727,-0.2588651 0.055572,0 0.234996,-0.00951 0.3987194,-0.02113 l 0.2976789,-0.02113 V 5.6579436 6.2199354 L 5.5116224,6.204246 C 5.3771611,6.1956168 5.2581213,6.1795305 5.2470896,6.1684988 5.2360578,6.157467 5.2180228,6.0272369 5.2070118,5.8790986 5.1960008,5.7309602 5.1723577,5.6097561 5.1544715,5.6097561 5.1365854,5.6097561 5.043164,5.730487 4.9468686,5.878047 4.7982512,6.1057833 4.7527661,6.1520363 4.6459596,6.1840363 4.4548643,6.2412898 4.3852551,6.1905345 4.137813,5.8135238 L 3.9186992,5.4796748 3.8975251,5.6585366 c -0.011646,0.098374 -0.022621,0.2630081 -0.02439,0.3658536 l -0.00322,0.1869919 H 3.6097561 3.3495935 Z"
     id="path9" />
  <path
     style="fill:#a0a0a0;stroke:none;stroke-width:0.0325203"
     d=""
     id="path10" />
  <path
     style="fill:#a0a0a0;stroke:none;stroke-width:0.0325203"
     d=""
     id="path11" />
  <path
     style="fill:#ffffff;stroke:none;stroke-width:0.0325203;fill-opacity:1"
     d="M 7.300813,15.575566 C 5.873987,15.471096 4.2934442,14.830154 3.1415335,13.888893 1.8995225,12.874009 0.9509106,11.362131 0.55294358,9.7632511 0.33778006,8.8988062 0.30323212,7.5485519 0.47279103,6.6306094 0.64207473,5.7141571 1.072553,4.6502192 1.5963691,3.8536585 2.7171638,2.1492796 4.4152146,1.0023463 6.4715447,0.56076477 c 0.392402,-0.0842654 0.4426052,-0.0873271 1.4471545,-0.0882569 0.9596549,-8.882e-4 1.0694104,0.004863 1.4101678,0.0738906 2.415357,0.48928323 4.357765,1.97720913 5.421245,4.15278843 0.628911,1.2865753 0.848887,2.5110972 0.727627,4.0504101 -0.130825,1.660724 -0.935487,3.36719 -2.176926,4.616659 -0.603464,0.607367 -1.229157,1.052955 -2.03252,1.447459 -0.983766,0.483095 -1.8359769,0.702305 -2.9079619,0.747999 -0.2250114,0.0096 -0.4822823,0.02199 -0.5717132,0.02755 -0.089431,0.0056 -0.3089431,-6.03e-4 -0.4878049,-0.0137 z M 9.3170732,15.090951 C 10.302009,14.89278 11.513261,14.359341 12.227642,13.809128 13.855784,12.555144 14.871751,10.786939 15.088946,8.8292683 15.138013,8.387 15.129053,7.4396361 15.071659,7.0016657 14.923704,5.8726234 14.423513,4.6580813 13.708068,3.6906559 12.530162,2.0978895 10.662003,1.0495588 8.6341463,0.84338807 8.1291392,0.79204433 7.1928367,0.82338725 6.7317073,0.90707259 4.7133948,1.2733541 3.0476209,2.3587397 1.9132871,4.0466605 0.87135837,5.59708 0.50430332,7.5712049 0.89573746,9.5193268 1.2599104,11.331773 2.3575744,12.93551 3.9837398,14.031037 c 0.7032648,0.47378 1.7473096,0.907782 2.5392417,1.055544 0.5008465,0.09345 0.5147001,0.09422 1.525799,0.08481 0.7881336,-0.0073 0.9586686,-0.01815 1.2682927,-0.08044 z"
     id="path12" />
  <path
     style="fill:#ffffff;stroke:none;stroke-width:0.0325203;fill-opacity:1"
     d="M 4.4065041,12.956608 C 4.2001046,12.883005 3.9679863,12.685022 3.856871,12.487805 3.7603869,12.316556 3.7560994,12.293025 3.7561416,11.934959 c 3.91e-5,-0.331892 0.00907,-0.392284 0.080262,-0.536585 0.1795591,-0.363965 0.5940113,-0.648287 0.9440839,-0.647661 0.2421941,4.33e-4 0.4080751,0.08565 0.5247113,0.269571 0.2346778,0.370048 0.021719,0.859664 -0.4325945,0.99458 -0.2160908,0.06417 -0.2733258,0.06245 -0.4401061,-0.01327 -0.088569,-0.04021 -0.1787776,-0.120716 -0.2565269,-0.228938 -0.078428,-0.109166 -0.1309618,-0.155877 -0.151834,-0.135005 -0.050499,0.0505 -0.086307,0.29985 -0.066044,0.45991 0.024567,0.194061 0.076397,0.290035 0.2330803,0.431589 0.4138457,0.373884 0.9528034,0.145982 1.4754616,-0.62391 0.3391604,-0.499594 0.6110765,-1.214307 0.892597,-2.3461317 L 6.7124555,8.9430894 h 0.1519023 c 0.083546,0 0.1976341,-0.00915 0.2535284,-0.020325 0.088806,-0.017761 0.101626,-0.033658 0.101626,-0.1260162 0,-0.092358 -0.01282,-0.1082553 -0.101626,-0.1260163 C 7.0619919,8.6595528 6.9539938,8.6504065 6.8778907,8.6504065 H 6.7395212 L 6.7864534,8.398374 C 6.8440868,8.0888745 6.922405,7.7725789 7.0984833,7.1382114 7.2268273,6.6758198 7.2351034,6.6571834 7.2573428,6.7804878 c 0.012904,0.071545 0.024305,0.5215447 0.025336,1 l 0.00187,0.8699187 h 0.1260996 c 0.069354,0 0.1412494,-0.018293 0.1597665,-0.04065 C 7.5889359,8.5873984 7.6573984,8.3130081 7.7225574,8 7.9364761,6.9723893 8.1539932,6.2395226 8.5267372,5.2905285 9.0525408,3.9518502 9.7080563,2.8825482 10.168225,2.6128714 c 0.163237,-0.095664 0.490853,-0.1369287 0.636638,-0.080188 0.212333,0.082641 0.290488,0.4785206 0.153897,0.7795324 l -0.0642,0.141484 -0.105816,-0.070464 C 10.495623,3.1880453 10.24297,3.1706109 10.032611,3.331059 9.6743665,3.6043059 9.5794488,4.1826224 9.86356,4.3610611 10.214427,4.5814267 10.872269,4.0907643 11.122449,3.4220975 11.275785,3.0122713 11.173792,2.5388163 10.891996,2.3523331 10.699875,2.225193 10.374494,2.2073993 10.103507,2.309214 9.6902787,2.4644718 8.9526894,3.1543287 8.5247252,3.7858265 8.122922,4.378722 7.7170719,5.1850341 7.4106576,5.999172 L 7.300813,6.291027 7.2792719,6.1292533 C 7.2674241,6.0402777 7.2564485,4.8202169 7.2548816,3.4180069 l -0.00285,-2.54947279 0.593496,0.0223062 c 1.1956774,0.0449388 1.5564461,0.0991292 2.3126274,0.34737519 1.035381,0.339904 1.913506,0.8657255 2.683992,1.6071742 1.015708,0.9774289 1.666458,2.0998503 2.043083,3.5239342 l 0.117341,0.4436842 0.0143,0.9236095 c 0.01636,1.0563739 -0.01498,1.4598422 -0.155788,2.0059522 -0.185827,0.7207082 -0.55762,1.5632612 -0.971023,2.2005192 l -0.205692,0.317074 H 10.468201 7.2520325 v -0.311834 -0.311834 l 0.1000673,0.0842 c 0.2663168,0.224091 0.4971197,0.09533 0.8102963,-0.452044 0.056397,-0.09857 0.113172,-0.179221 0.1261668,-0.179221 0.012995,0 0.041116,0.08467 0.06249,0.188156 0.047443,0.229695 0.2085132,0.504494 0.3730231,0.636407 0.096781,0.07761 0.1621568,0.10106 0.3118592,0.111889 0.2231763,0.01614 0.3522124,-0.03782 0.4701018,-0.196581 0.1649109,-0.22209 0.1087642,-0.37948 -0.073188,-0.205159 -0.069156,0.06625 -0.1178943,0.0853 -0.1980953,0.07739 C 9.0849161,11.686774 9.0091428,11.569385 8.974158,11.297818 8.9319802,10.970417 8.9397359,9.7340156 8.9866341,9.3089431 L 9.0269987,8.9430894 H 8.7606663 8.4943337 L 8.4397954,9.195122 c -0.1260868,0.5826725 -0.3090988,1.305621 -0.3750286,1.481466 -0.080051,0.21351 -0.2800559,0.445363 -0.384185,0.445363 -0.03959,0 -0.094059,-0.03789 -0.1269867,-0.08834 -0.052263,-0.08007 -0.057305,-0.182038 -0.053863,-1.0894312 l 0.0038,-1.0010904 H 7.3940413 7.2845528 V 10.02775 c 0,1.069587 -0.018968,1.496659 -0.065205,1.468083 -0.012982,-0.008 -0.07863,-0.161283 -0.1458826,-0.340576 -0.067253,-0.179294 -0.1343724,-0.325989 -0.1491542,-0.325989 -0.014782,0 -0.112645,0.179269 -0.2174738,0.398374 -0.2584479,0.540189 -0.4566287,0.834165 -0.7863991,1.166525 -0.4881987,0.492031 -1.0872694,0.714591 -1.513934,0.562441 z m 5.9476729,-1.396075 c 0.34116,-0.08886 0.658151,-0.354395 0.78982,-0.661609 0.02574,-0.06006 0.03998,-0.116027 0.03165,-0.124363 -0.0083,-0.0083 -0.09908,0.06084 -0.201648,0.153728 -0.340919,0.308739 -0.604395,0.362569 -0.776059,0.158558 -0.08418,-0.100038 -0.160992,-0.3203 -0.14294,-0.409867 0.0055,-0.02741 0.101613,-0.08421 0.213532,-0.126234 0.47383,-0.177907 0.796581,-0.530908 0.842887,-0.9218878 C 11.133619,9.441438 11.060919,9.262854 10.939994,9.207758 10.793414,9.140972 10.532809,9.162849 10.33972,9.25815 10.08897,9.3819086 9.7576114,9.722614 9.6340325,9.9837398 9.4338524,10.406726 9.4101424,10.929678 9.5757941,11.268258 c 0.1504879,0.307585 0.3835783,0.395109 0.7783829,0.292275 z m 1.148515,-2.4283028 c 0.133448,-0.080166 0.269666,-0.2417076 0.269666,-0.319798 0,-0.1177746 0.06503,-0.097517 0.2588,0.080625 0.226449,0.2081808 0.334431,0.2288384 0.563634,0.1078267 l 0.136915,-0.072287 -0.16642,-0.01764 C 12.427311,8.8963314 12.368683,8.8675291 12.222263,8.7424393 11.974769,8.5309987 11.853842,8.3509668 11.900611,8.2635772 11.952961,8.1657616 12.057,8.1213343 12.179776,8.1443675 c 0.08922,0.016738 0.111446,0.00903 0.128459,-0.044575 0.03089,-0.097312 -0.03699,-0.1973532 -0.133902,-0.1973532 -0.05919,0 -0.139048,0.056727 -0.273932,0.194575 L 11.710009,8.2915889 11.560344,8.1620546 C 11.368067,7.9956407 11.222252,7.9861567 11.055682,8.1292309 l -0.112593,0.096711 0.104495,-0.019235 c 0.161383,-0.029708 0.24901,0.00701 0.445673,0.1867483 0.203239,0.185749 0.224758,0.266973 0.117386,0.4430712 -0.07526,0.123427 -0.197627,0.1633246 -0.341438,0.1113217 -0.0567,-0.020503 -0.114955,-0.037278 -0.129454,-0.037278 -0.04209,0 0.0053,0.2667889 0.05264,0.2960166 0.05536,0.034212 0.178831,0.00463 0.310306,-0.074355 z"
     id="path15" />
  <path
     style="fill:#ffffff;stroke:none;stroke-width:0.0325203;fill-opacity:1"
     d="m 10.056146,10.268293 c 0.05649,-0.4734934 0.236325,-0.869919 0.394629,-0.869919 0.09158,0 0.117315,0.06756 0.117705,0.3089431 3.71e-4,0.2293601 -0.05172,0.3897869 -0.170504,0.5250699 -0.08433,0.09605 -0.316367,0.271678 -0.358931,0.271678 -0.0061,0 0.0016,-0.106098 0.0171,-0.235772 z"
     id="path16" />
  <path
     style="fill:#ffffff;stroke:none;stroke-width:0.0325203;fill-opacity:1"
     d="m 7.2520325,13.723577 v -1.398374 h 3.1707315 c 1.743903,0 3.170732,0.01224 3.170732,0.02719 0,0.05751 -0.480163,0.570822 -0.873309,0.933599 -0.860042,0.793607 -1.867003,1.335996 -3.0233532,1.6285 -0.6123309,0.154891 -1.0715652,0.207461 -1.8123205,0.207461 H 7.2520325 Z M 9.063748,13.235772 c 0.014106,-0.05394 0.044358,-0.06504 0.1772954,-0.06504 0.1268208,0 0.1769531,-0.01667 0.2401096,-0.07982 0.091651,-0.09165 0.095849,-0.113471 0.037245,-0.193617 C 9.4687264,12.829362 9.2645141,12.783908 9,12.781904 l -0.1869919,-0.0014 v 0.238482 c 0,0.131166 0.00976,0.248239 0.02168,0.260163 0.011924,0.01192 0.064514,0.02168 0.1168656,0.02168 0.067836,0 0.1000726,-0.01869 0.112194,-0.06504 z m -0.8269311,-0.0765 c 0.1759727,-0.07396 0.4880314,-0.446598 0.4128841,-0.493041 -0.053802,-0.03325 -0.2154342,0.01512 -0.2766917,0.08281 -0.055512,0.06134 -0.058172,0.06102 -0.1522087,-0.0181 -0.08678,-0.07302 -0.3183616,-0.117144 -0.3183616,-0.06066 0,0.01093 0.058445,0.08968 0.1298771,0.175001 l 0.1298771,0.155123 -0.097357,0.04033 c -0.1440865,0.05968 -0.1244521,0.134072 0.041899,0.158745 0.013989,0.0021 0.072526,-0.01602 0.1300813,-0.04021 z m 1.720734,-0.106025 c 0.012608,-0.05164 0.030892,-0.132695 0.04063,-0.180114 0.016089,-0.07835 0.035524,-0.08828 0.2130141,-0.108884 0.361528,-0.04196 0.17384,-0.112811 -0.3006255,-0.113485 L 9.658537,12.650407 v 0.158536 c 0,0.228516 0.032242,0.356714 0.093163,0.37043 0.096681,0.02177 0.1825966,-0.03087 0.2058509,-0.126126 z m 0.9482251,0.105323 c 0.101171,-0.04227 0.411297,-0.406554 0.411297,-0.48312 0,-0.05927 -0.240711,0.0016 -0.301763,0.0763 l -0.05786,0.07081 -0.07222,-0.06533 c -0.08432,-0.07627 -0.194778,-0.109105 -0.250731,-0.07452 -0.02829,0.01748 -0.01099,0.06351 0.06144,0.163495 0.05545,0.07654 0.10081,0.152363 0.10081,0.168496 0,0.01613 -0.04615,0.04542 -0.102548,0.06508 -0.09584,0.03341 -0.09862,0.03862 -0.04256,0.07961 0.0755,0.05521 0.120394,0.05506 0.254141,-8.21e-4 z"
     id="path17" />
  <path
     style="fill:#ffffff;stroke:none;stroke-width:0.00390625;fill-opacity:1"
     d="m 9.1472105,13.030883 c -0.037896,-0.0055 -0.065373,-0.02633 -0.065093,-0.04924 1.458e-4,-0.01194 0.013949,-0.03764 0.027551,-0.05129 0.041394,-0.04153 0.095525,-0.04121 0.1386252,8.33e-4 0.048394,0.0472 0.031528,0.08963 -0.039729,0.09993 -0.030179,0.0044 -0.029962,0.0044 -0.061354,-2.27e-4 z"
     id="path18" />
  <path
     style="fill:#ffffff;stroke:none;stroke-width:0.0078125;fill-opacity:1"
     d="M 7.3203125,15.600578 C 7.1559737,15.58955 6.6237081,15.515349 6.5722656,15.496295 6.5647948,15.493528 6.5625,15.444742 6.5625,15.288687 v -0.203991 l 0.021484,0.0045 c 0.1038781,0.02186 0.276045,0.04499 0.5058593,0.06797 0.1249565,0.01249 0.9802801,0.0175 1.3398438,0.0078 0.1697266,-0.0046 0.3630859,-0.01385 0.4296875,-0.02065 0.9792853,-0.09994 2.2039034,-0.560032 3.1210944,-1.172613 0.313693,-0.209512 0.631699,-0.481422 1.02539,-0.876754 l 0.166016,-0.166708 v 0.296491 0.29649 l -0.06445,0.0617 c -0.356657,0.341434 -0.864153,0.718273 -1.345703,0.999248 -0.805653,0.47008 -1.7908167,0.81959 -2.629648,0.932928 -0.5196467,0.07021 -1.4116309,0.112265 -1.8117589,0.08542 z"
     id="path19" />
  <path
     style="fill:#ffffff;stroke:none;stroke-width:0.03125;fill-opacity:1"
     d="M 5.109375,7.5556205 C 4.9253001,7.5205389 4.7856124,7.5192341 4.3464927,7.5484947 3.8220631,7.5834399 3.5625,7.4877124 3.5625,7.2593562 3.5625,7.0616415 3.6857011,7.0016517 4.320386,6.8903221 4.7910372,6.8077655 4.8679615,6.7751944 4.7674647,6.7010212 4.6884964,6.6427375 4.4653024,6.6437946 4.3233049,6.703125 4.1721455,6.7662834 3.7519979,6.7663985 3.6700353,6.7033039 3.6110861,6.657925 3.6121669,6.6540358 3.7083496,6.5654317 3.8531875,6.432006 4.0741329,6.3964091 4.6549515,6.412923 c 0.574248,0.016327 0.6957432,0.052523 0.7695976,0.229282 0.042529,0.1017854 0.1029314,0.587748 0.1056485,0.8499825 0.00103,0.09946 -0.0017,0.1014761 -0.1317601,0.097387 -0.073047,-0.0023 -0.203125,-0.017576 -0.2890625,-0.033954 z M 4.6875,7.2772006 C 4.8070295,7.2047279 4.8425406,7.1636425 4.8432715,7.096977 4.8439194,7.0378739 4.3940245,7.0740965 4.2912757,7.1414201 4.0537449,7.2970563 4.4377275,7.4286416 4.6875,7.2772006 Z"
     id="path20" />
  <path
     style="fill:#ffffff;stroke:none;stroke-width:0.03125;fill-opacity:1"
     d="M 3.34375,5.65625 V 5.09375 H 3.7484987 4.1532475 L 4.253515,5.2421875 C 4.5150562,5.629377 4.5680975,5.6905072 4.611359,5.6546034 4.6344922,5.6354046 4.7174439,5.510488 4.7956961,5.3770109 L 4.9379728,5.1343253 5.2237872,5.1140377 C 5.3809851,5.1028794 5.5707224,5.09375 5.6454258,5.09375 H 5.78125 v 0.5625 0.5625 H 5.5174693 C 5.3723899,6.21875 5.2463372,6.206855 5.2373522,6.192317 5.2283672,6.1777792 5.2114161,6.0507743 5.1996829,5.910084 5.1879498,5.7693938 5.1676971,5.6476997 5.154677,5.6396528 5.1416568,5.6316059 5.0606352,5.7347208 4.9746289,5.8687971 4.7834191,6.1668761 4.7553629,6.1910505 4.5773422,6.211116 4.3998786,6.2311187 4.3731204,6.2081122 4.1173701,5.8156344 L 3.921875,5.515625 l -0.00753,0.125 C 3.910205,5.709375 3.898459,5.8675781 3.888241,5.9921875 L 3.8696675,6.21875 H 3.6067087 3.34375 Z"
     id="path21" />
  <path
     style="fill:#ffffff;stroke:none;stroke-width:0.03125;fill-opacity:1"
     d="M 3.25,8.3235395 V 7.772079 l 0.2421875,0.020255 c 0.1736169,0.014521 0.2532189,0.035167 0.2811497,0.072921 0.036477,0.049306 0.046324,0.049155 0.15435,-0.00236 C 4.1001191,7.780668 4.422203,7.763287 4.59375,7.826951 4.671094,7.855655 4.7591168,7.886914 4.7893567,7.896415 4.8195967,7.905915 4.9136099,7.883891 4.9982749,7.847469 5.1974278,7.761796 5.4956616,7.759368 5.6775301,7.841939 5.8453574,7.918136 5.8745927,8.0168044 5.8748257,8.507809 L 5.875,8.875 H 5.5808899 5.2867797 L 5.2762024,8.5286745 C 5.2669493,8.2257098 5.2577998,8.1765597 5.203125,8.1361091 5.1342789,8.085174 4.9795874,8.1006018 4.9158469,8.16476 4.893804,8.1869474 4.8686263,8.3447818 4.8561383,8.5390625 L 4.8345448,8.875 H 4.5578974 4.28125 L 4.2789686,8.6953125 C 4.2751465,8.3942654 4.2342006,8.1823342 4.1709193,8.1360618 4.0880868,8.0754933 3.97866,8.08384 3.90625,8.15625 3.8516865,8.2108135 3.84375,8.2604166 3.84375,8.546875 V 8.875 H 3.546875 3.25 Z"
     id="path22" />
  <path
     style="fill:#ffffff;stroke:none;stroke-width:0.03125;fill-opacity:1"
     d="M 7.375,15.604461 C 6.85909,15.56401 6.1328325,15.415471 5.59375,15.240146 3.4504784,14.543096 1.7356175,12.937702 0.8959699,10.842248 0.63702066,10.196005 0.47443411,9.594384 0.40232972,9.015625 0.34568558,8.5609603 0.35478342,7.3172112 0.41785224,6.8935716 0.57045356,5.8685331 1.0093509,4.7222044 1.5855442,3.84375 2.6754382,2.1821164 4.3690106,1.0195186 6.3437419,0.57735855 7.1739256,0.39147296 8.6037059,0.38651927 9.484375,0.56647737 c 0.752694,0.15380729 1.838467,0.59332873 2.49725,1.01088803 1.776691,1.1261274 3.001247,2.915658 3.421965,5.0007596 0.179117,0.8877125 0.144327,2.3360487 -0.07709,3.2095506 -0.676419,2.6684564 -2.616314,4.7203834 -5.204064,5.5046074 -0.4783376,0.144961 -0.9201001,0.227079 -1.434932,0.266737 -0.5106144,0.03933 -1.1209178,0.06046 -1.3125,0.04544 z m 1.7055128,-0.496159 c 0.9998272,-0.14846 2.3312102,-0.698813 3.1012962,-1.28198 0.481778,-0.36484 1.186991,-1.074214 1.545903,-1.555026 0.692541,-0.927753 1.165702,-2.08934 1.324296,-3.2510848 0.07854,-0.5753412 0.071,-1.665359 -0.01506,-2.1776518 C 14.561742,4.0139166 12.488747,1.7602587 9.7060409,1.0470615 9.0123809,0.86927897 8.6635128,0.8347089 7.75,0.85323344 6.8969803,0.87053125 6.6086559,0.91105847 5.921875,1.1101966 3.9843981,1.6719852 2.3491669,3.0483557 1.4675702,4.859375 0.9737129,5.8738809 0.77050272,6.7787006 0.76924681,7.96875 0.76853106,8.6469812 0.8016339,8.9951437 0.92204294,9.5757978 1.3466282,11.623295 2.7984922,13.476939 4.73646,14.445792 c 0.6511506,0.325532 1.3764522,0.569845 1.9582616,0.659627 0.420495,0.06489 1.9557087,0.06675 2.3857912,0.0029 z"
     id="path23" />
</svg>
