<?xml version="1.0" encoding="UTF-8" standalone="no"?>
<svg
   width="16"
   height="16"
   viewBox="0 0 16 16"
   fill="none"
   version="1.1"
   id="svg3"
   sodipodi:docname="vkico.svg"
   inkscape:version="1.3.2 (091e20e, 2023-11-25, custom)"
   xmlns:inkscape="http://www.inkscape.org/namespaces/inkscape"
   xmlns:sodipodi="http://sodipodi.sourceforge.net/DTD/sodipodi-0.dtd"
   xmlns="http://www.w3.org/2000/svg"
   xmlns:svg="http://www.w3.org/2000/svg">
  <sodipodi:namedview
     id="namedview3"
     pagecolor="#ffffff"
     bordercolor="#000000"
     borderopacity="0.25"
     inkscape:showpageshadow="2"
     inkscape:pageopacity="0.0"
     inkscape:pagecheckerboard="0"
     inkscape:deskcolor="#d1d1d1"
     inkscape:zoom="30.75"
     inkscape:cx="7.9837398"
     inkscape:cy="8"
     inkscape:window-width="1280"
     inkscape:window-height="730"
     inkscape:window-x="-6"
     inkscape:window-y="-6"
     inkscape:window-maximized="1"
     inkscape:current-layer="svg3" />
  <defs
     id="defs3">
    <linearGradient
       id="paint0_linear"
       x1="-3.51773"
       y1="8.044"
       x2="5.3595"
       y2="19.5126"
       gradientUnits="userSpaceOnUse">
      <stop
         stop-color="#FE25A7"
         id="stop2" />
      <stop
         offset="1"
         stop-color="#A30CFF"
         id="stop3" />
    </linearGradient>
  </defs>
  <path
     d="m 13.005101,9.049831 c -0.247506,-0.3022677 -0.176709,-0.4367579 0,-0.7069535 0.0032,-0.00306 2.046473,-2.7333672 2.256982,-3.6592897 l 0.0013,-6.077e-4 c 0.104619,-0.3374412 0,-0.5854191 -0.505867,-0.5854191 h -1.673918 c -0.426139,0 -0.622632,0.2128239 -0.727876,0.4509289 0,0 -0.852279,1.9727709 -2.057956,3.2515407 -0.38914,0.3695133 -0.5690296,0.4879473 -0.7814612,0.4879473 -0.1046191,0 -0.2672908,-0.118434 -0.2672908,-0.4558556 V 4.6829801 C 9.249025,4.2783129 9.1297463,4.097561 8.7769569,4.097561 H 6.1448524 c -0.2672914,0 -0.4261391,0.1887603 -0.4261391,0.3645671 0,0.3837029 0.6028482,0.4719106 0.6653626,1.5514397 v 2.3422633 c 0,0.513248 -0.096333,0.607638 -0.3100406,0.607638 -0.5690294,0 -1.9501395,-1.9807989 -2.768599,-4.2478093 C 3.1402291,4.2758398 2.9788297,4.0981697 2.5494913,4.0981697 H 0.87494577 c -0.47780545,0 -0.57413276,0.212824 -0.57413276,0.4509486 0,0.4207017 0.56902945,2.5125151 2.64612159,5.2761085 1.3842896,1.8864082 3.333801,2.9085652 5.1072311,2.9085652 1.0659667,0 1.1960986,-0.227015 1.1960986,-0.61749 0,-1.8025 -0.096313,-1.972771 0.4376212,-1.972771 0.2475068,0 0.6736455,0.118454 1.6688145,1.02834 1.137431,1.0789 1.324327,1.561921 1.960993,1.561921 h 1.673899 c 0.477171,0 0.718946,-0.227015 0.579884,-0.674863 -0.318324,-0.941957 -2.469413,-2.8795541 -2.566375,-3.009098 z"
     fill="#4b729f"
     id="path1"
     style="stroke-width:0.196278;fill:#668fbf;fill-opacity:1" />
</svg>
